<svg width="84" height="84" viewBox="0 0 84 84" fill="none" xmlns="http://www.w3.org/2000/svg">
<g clip-path="url(#clip0_74_135)">
<rect width="84" height="84" rx="11.5862" fill="#6D80F3"/>
<path d="M30.1217 38.1099L34.8275 28.8216H39.9809L32.4978 42.5998V51.3789H27.7456V42.7541L20.2625 28.8216H25.4467L30.1217 38.1099ZM49.3926 28.8216C51.4395 28.8216 53.1264 29.0685 54.4533 29.5622C55.7905 30.0559 56.7831 30.8017 57.4311 31.7994C58.0792 32.7972 58.4032 34.0572 58.4032 35.5795C58.4032 36.6081 58.2077 37.5082 57.8169 38.2796C57.426 39.0511 56.9117 39.7042 56.274 40.2391C55.6362 40.774 54.9471 41.2111 54.2065 41.5506L60.841 51.3789H55.5334L50.1486 42.7232H47.6028V51.3789H42.8198V28.8216H49.3926ZM49.0531 32.7406H47.6028V38.8351H49.1457C50.7298 38.8351 51.8612 38.5728 52.5401 38.0482C53.2293 37.5133 53.5739 36.7316 53.5739 35.703C53.5739 34.6332 53.2036 33.872 52.463 33.4195C51.7327 32.9669 50.5961 32.7406 49.0531 32.7406Z" fill="white"/>
</g>
<defs>
<clipPath id="clip0_74_135">
<rect width="84" height="84" rx="11.5862" fill="white"/>
</clipPath>
</defs>
</svg>
