<svg width="18" height="18" viewBox="0 0 18 18" fill="none" xmlns="http://www.w3.org/2000/svg">
<path d="M7.33366 4.00033H10.667C10.667 3.5583 10.4914 3.13437 10.1788 2.82181C9.86628 2.50925 9.44235 2.33366 9.00033 2.33366C8.5583 2.33366 8.13438 2.50925 7.82181 2.82181C7.50925 3.13437 7.33366 3.5583 7.33366 4.00033ZM5.66699 4.00033C5.66699 3.11627 6.01818 2.26842 6.6433 1.6433C7.26842 1.01818 8.11627 0.666992 9.00033 0.666992C9.88438 0.666992 10.7322 1.01818 11.3573 1.6433C11.9825 2.26842 12.3337 3.11627 12.3337 4.00033H16.5003C16.7213 4.00033 16.9333 4.08812 17.0896 4.2444C17.2459 4.40068 17.3337 4.61264 17.3337 4.83366C17.3337 5.05467 17.2459 5.26663 17.0896 5.42291C16.9333 5.57919 16.7213 5.66699 16.5003 5.66699H15.7653L15.027 14.2837C14.956 15.1157 14.5753 15.8908 13.9602 16.4556C13.3451 17.0204 12.5404 17.3338 11.7053 17.3337H6.29533C5.46025 17.3338 4.65555 17.0204 4.04045 16.4556C3.42534 15.8908 3.04464 15.1157 2.97366 14.2837L2.23533 5.66699H1.50033C1.27931 5.66699 1.06735 5.57919 0.91107 5.42291C0.75479 5.26663 0.666992 5.05467 0.666992 4.83366C0.666992 4.61264 0.75479 4.40068 0.91107 4.2444C1.06735 4.08812 1.27931 4.00033 1.50033 4.00033H5.66699ZM11.5003 9.00033C11.5003 8.77931 11.4125 8.56735 11.2562 8.41107C11.1 8.25479 10.888 8.16699 10.667 8.16699C10.446 8.16699 10.234 8.25479 10.0777 8.41107C9.92146 8.56735 9.83366 8.77931 9.83366 9.00033V12.3337C9.83366 12.5547 9.92146 12.7666 10.0777 12.9229C10.234 13.0792 10.446 13.167 10.667 13.167C10.888 13.167 11.1 13.0792 11.2562 12.9229C11.4125 12.7666 11.5003 12.5547 11.5003 12.3337V9.00033ZM7.33366 8.16699C7.55467 8.16699 7.76663 8.25479 7.92291 8.41107C8.07919 8.56735 8.16699 8.77931 8.16699 9.00033V12.3337C8.16699 12.5547 8.07919 12.7666 7.92291 12.9229C7.76663 13.0792 7.55467 13.167 7.33366 13.167C7.11265 13.167 6.90068 13.0792 6.7444 12.9229C6.58812 12.7666 6.50033 12.5547 6.50033 12.3337V9.00033C6.50033 8.77931 6.58812 8.56735 6.7444 8.41107C6.90068 8.25479 7.11265 8.16699 7.33366 8.16699ZM4.63366 14.142C4.66916 14.5582 4.85963 14.9458 5.16736 15.2283C5.47509 15.5107 5.87764 15.6673 6.29533 15.667H11.7053C12.1227 15.6668 12.5249 15.5101 12.8322 15.2277C13.1396 14.9453 13.3298 14.5579 13.3653 14.142L14.092 5.66699H3.90866L4.63533 14.142H4.63366Z" fill="#EB5757"/>
</svg>
