<svg width="22" height="22" viewBox="0 0 22 22" fill="none" xmlns="http://www.w3.org/2000/svg">
<path d="M10.4648 9.89032C11.2274 10.1624 12.8869 10.7543 13.2815 9.59936C13.6843 8.4176 12.066 7.91507 11.2736 7.66902C11.1838 7.64115 11.1046 7.61654 11.0402 7.59464L10.2793 9.82514C10.3325 9.84311 10.3949 9.86537 10.4648 9.89032Z" fill="#A5A5A5"/>
<path d="M9.27415 13.4844C10.1877 13.8086 12.1857 14.5178 12.6196 13.245C13.0636 11.9437 11.1198 11.3352 10.1713 11.0383C10.0655 11.0051 9.97175 10.9758 9.89543 10.9499L9.05637 13.4081C9.11891 13.4293 9.19228 13.4553 9.27415 13.4844Z" fill="#A5A5A5"/>
<path fill-rule="evenodd" clip-rule="evenodd" d="M21.039 11.5156C20.5586 17.2555 15.5161 21.5192 9.77616 21.0388C4.03626 20.5585 -0.227403 15.5159 0.252996 9.77605C0.733395 4.03615 5.77594 -0.227543 11.5158 0.25282C17.2557 0.733183 21.5194 5.7757 21.039 11.5156ZM13.4661 6.99342C14.8702 7.61086 15.8655 8.44274 15.5423 9.80882C15.3068 10.8093 14.7021 11.252 13.9388 11.3609C14.9217 11.9797 15.1873 13.0203 14.7595 14.2159C13.9945 15.9238 12.5135 15.9491 10.591 15.4178L9.95842 17.2697L8.83729 16.8893L9.46125 15.0622C9.17056 14.9639 8.87378 14.8599 8.5683 14.7499L7.94162 16.586L6.82179 16.2056L7.45407 14.3498L5.19637 13.5771L5.87457 12.3186C5.87457 12.3186 6.70012 12.6122 6.68973 12.595C7.00728 12.702 7.16908 12.5035 7.23753 12.3686L8.95245 7.34202C8.98709 7.10084 8.92849 6.78839 8.47432 6.63391C8.49297 6.62303 7.65976 6.3583 7.65976 6.3583L8.0664 5.16541L10.3282 5.92857L10.9547 4.09384L12.0752 4.47422L11.4615 6.27273C11.7637 6.36803 12.067 6.46474 12.3615 6.56464L12.9709 4.77755L14.092 5.15798L13.4661 6.99342Z" fill="#A5A5A5"/>
</svg>
