<svg width="35" height="35" viewBox="0 0 35 35" fill="none" xmlns="http://www.w3.org/2000/svg">
<rect width="35" height="35" rx="4" fill="#E386E4"/>
<path d="M18.7285 7.50586V10.4258H17.2246V7.50586H18.7285ZM18.543 23.4531V26.0703H17.0488V23.4531H18.543ZM20.0176 20.2988C20.0176 19.9212 19.9395 19.5924 19.7832 19.3125C19.6335 19.026 19.3861 18.7689 19.041 18.541C18.696 18.3066 18.2337 18.0885 17.6543 17.8867C16.821 17.5938 16.0918 17.265 15.4668 16.9004C14.8483 16.5293 14.3665 16.0736 14.0215 15.5332C13.6829 14.9863 13.5137 14.306 13.5137 13.4922C13.5137 12.6914 13.696 11.998 14.0605 11.4121C14.4316 10.8262 14.946 10.3737 15.6035 10.0547C16.2611 9.73568 17.0293 9.57617 17.9082 9.57617C18.5853 9.57617 19.194 9.67708 19.7344 9.87891C20.2812 10.0807 20.7467 10.377 21.1309 10.7676C21.515 11.1582 21.8079 11.64 22.0098 12.2129C22.2181 12.7793 22.3223 13.4303 22.3223 14.166H19.9785C19.9785 13.7493 19.9297 13.3783 19.832 13.0527C19.7409 12.7207 19.6042 12.4408 19.4219 12.2129C19.2396 11.9785 19.0182 11.7995 18.7578 11.6758C18.5039 11.5521 18.2142 11.4902 17.8887 11.4902C17.4264 11.4902 17.0456 11.5781 16.7461 11.7539C16.4466 11.9232 16.2253 12.1576 16.082 12.457C15.9453 12.7565 15.877 13.0983 15.877 13.4824C15.877 13.8535 15.9486 14.179 16.0918 14.459C16.235 14.7389 16.4792 14.9928 16.8242 15.2207C17.1758 15.4421 17.6576 15.6667 18.2695 15.8945C19.1094 16.194 19.8353 16.5293 20.4473 16.9004C21.0658 17.265 21.541 17.7174 21.873 18.2578C22.2116 18.7917 22.3809 19.4655 22.3809 20.2793C22.3809 21.1191 22.1855 21.832 21.7949 22.418C21.4108 23.0039 20.8704 23.4499 20.1738 23.7559C19.4837 24.0553 18.6797 24.2051 17.7617 24.2051C17.1823 24.2051 16.6061 24.1302 16.0332 23.9805C15.4668 23.8242 14.9525 23.5703 14.4902 23.2188C14.028 22.8672 13.6602 22.4017 13.3867 21.8223C13.1133 21.2363 12.9766 20.5202 12.9766 19.6738H15.3398C15.3398 20.1816 15.4082 20.6048 15.5449 20.9434C15.6816 21.2819 15.8672 21.5488 16.1016 21.7441C16.3359 21.9395 16.5964 22.0794 16.8828 22.1641C17.1758 22.2487 17.4688 22.291 17.7617 22.291C18.25 22.291 18.6602 22.2096 18.9922 22.0469C19.3307 21.8776 19.5846 21.6432 19.7539 21.3438C19.9297 21.0378 20.0176 20.6895 20.0176 20.2988Z" fill="white"/>
</svg>
