<svg width="35" height="34" viewBox="0 0 35 34" fill="none" xmlns="http://www.w3.org/2000/svg">
<path d="M30.0105 8.76077H31.5456" stroke="#AF82EA" stroke-width="0.969569" stroke-linecap="round"/>
<path d="M26.5361 31.2225V33" stroke="#AF82EA" stroke-width="0.969569" stroke-linecap="round"/>
<path d="M31.465 22.7387V24.8395H29.4451" stroke="#AF82EA" stroke-width="0.969569" stroke-linecap="round"/>
<path d="M29.7681 19.5068H32.2728" stroke="#AF82EA" stroke-width="0.969569" stroke-linecap="round"/>
<path d="M34.1312 15.7901V20.7996H33.1616" stroke="#AF82EA" stroke-width="0.969569" stroke-linecap="round"/>
<path d="M23.9507 15.6285H25.0818" stroke="#AF82EA" stroke-width="0.969569" stroke-linecap="round"/>
<path d="M13.5278 15.063H14.9822" stroke="#AF82EA" stroke-width="0.969569" stroke-linecap="round"/>
<path d="M13.2854 8.84156V9.97272" stroke="#AF82EA" stroke-width="0.969569" stroke-linecap="round"/>
<path d="M26.2131 28.9601H28.2331" stroke="#AF82EA" stroke-width="0.969569" stroke-linecap="round"/>
<path d="M32.6768 27.6674V28.8793" stroke="#AF82EA" stroke-width="0.969569" stroke-linecap="round"/>
<path d="M34.4543 31.4648H29.9297V32.9192" stroke="#AF82EA" stroke-width="0.969569" stroke-linecap="round"/>
<path d="M2.21631 18.0525H3.34747V21.446" stroke="#AF82EA" stroke-width="0.969569" stroke-linecap="round"/>
<path d="M2.1355 24.9203H6.33697V19.6684" stroke="#AF82EA" stroke-width="0.969569" stroke-linecap="round"/>
<path d="M8.35693 17.6485V19.9108H10.6193" stroke="#AF82EA" stroke-width="0.969569" stroke-linecap="round"/>
<path d="M9.64966 24.2739V25.7282H10.8616" stroke="#AF82EA" stroke-width="0.969569" stroke-linecap="round"/>
<path d="M17.3254 27.5058V23.6275H20.3149" stroke="#AF82EA" stroke-width="0.969569" stroke-linecap="round"/>
<path d="M24.2739 25.809V27.1018" stroke="#AF82EA" stroke-width="0.969569" stroke-linecap="round"/>
<path d="M23.9506 31.0609H22.0115V32.9192" stroke="#AF82EA" stroke-width="0.969569" stroke-linecap="round"/>
<path d="M11.9119 30.7377H13.2854V29.4449H18.2949" stroke="#AF82EA" stroke-width="0.969569" stroke-linecap="round"/>
<path d="M10.2151 31.4648V33H12.4774" stroke="#AF82EA" stroke-width="0.969569" stroke-linecap="round"/>
<path d="M20.4766 9.81113H22.9813" stroke="#AF82EA" stroke-width="0.969569" stroke-linecap="round"/>
<path d="M21.6077 12.1543V13.1238" stroke="#AF82EA" stroke-width="0.969569" stroke-linecap="round"/>
<path d="M21.8499 17.4869V21.1228H19.3452" stroke="#AF82EA" stroke-width="0.969569" stroke-linecap="round"/>
<path d="M26.4556 24.7587V27.2634H30.253" stroke="#AF82EA" stroke-width="0.969569" stroke-linecap="round"/>
<path d="M20.8804 14.7398H22.6579" stroke="#AF82EA" stroke-width="0.969569" stroke-linecap="round"/>
<path d="M33.2424 10.6999V13.7702" stroke="#AF82EA" stroke-width="0.969569" stroke-linecap="round"/>
<path d="M27.425 16.8405H31.1417V14.9014" stroke="#AF82EA" stroke-width="0.969569" stroke-linecap="round"/>
<path d="M23.3044 1.97378H25.1628V6.01365" stroke="#AF82EA" stroke-width="0.969569" stroke-linecap="round"/>
<path d="M25.1626 8.92236V10.6191H26.5362" stroke="#AF82EA" stroke-width="0.969569" stroke-linecap="round"/>
<path d="M2.37793 8.59917H3.58989V9.89193" stroke="#AF82EA" stroke-width="0.969569" stroke-linecap="round"/>
<path d="M2.29712 11.5887V13.043H3.58988" stroke="#AF82EA" stroke-width="0.969569" stroke-linecap="round"/>
<path d="M7.62964 11.9119V13.043H11.9119" stroke="#AF82EA" stroke-width="0.969569" stroke-linecap="round"/>
<path d="M10.2959 6.90242V9.48794H7.14478" stroke="#AF82EA" stroke-width="0.969569" stroke-linecap="round"/>
<path d="M25.1626 14.0126V12.7198H31.0608" stroke="#AF82EA" stroke-width="0.969569" stroke-linecap="round"/>
<path d="M19.5068 3.75132V6.01365H20.5572" stroke="#AF82EA" stroke-width="0.969569" stroke-linecap="round"/>
<path d="M17.4062 16.9213V18.7796H14.0127" stroke="#AF82EA" stroke-width="0.969569" stroke-linecap="round"/>
<path d="M15.3054 23.3851V26.8594H13.6086" stroke="#AF82EA" stroke-width="0.969569" stroke-linecap="round"/>
<path d="M25.405 17.8909V22.6579H28.9601" stroke="#AF82EA" stroke-width="0.969569" stroke-linecap="round"/>
<path d="M8.51848 14.7398H6.41775V15.9517H5.04419V17.3253" stroke="#AF82EA" stroke-width="0.969569" stroke-linecap="round"/>
<path d="M16.275 1.89298V12.7198H15.1438" stroke="#AF82EA" stroke-width="0.969569" stroke-linecap="round"/>
<path d="M9.73047 0.842613H13.3664V6.01365" stroke="#AF82EA" stroke-width="0.969569" stroke-linecap="round"/>
<rect x="0.513641" y="0.513641" width="6.16369" height="6.16369" stroke="#E284E2" stroke-width="1.02728"/>
<rect x="26.8884" y="0.548278" width="6.16369" height="6.16369" stroke="#E284E2" stroke-width="1.02728"/>
<rect x="0.548309" y="26.2419" width="6.16369" height="6.16369" stroke="#E284E2" stroke-width="1.02728"/>
<rect x="2.1355" y="1.81218" width="3.2319" height="3.2319" fill="#AF82EA"/>
<rect x="28.51" y="1.84682" width="3.2319" height="3.2319" fill="#AF82EA"/>
<rect x="2.16992" y="27.5404" width="3.2319" height="3.2319" fill="#AF82EA"/>
</svg>
