<svg width="23" height="31" viewBox="0 0 23 31" fill="none" xmlns="http://www.w3.org/2000/svg">
<path d="M10.7628 11.3232H19.1962" stroke="#B283EA" stroke-width="1.17949" stroke-linecap="round"/>
<path d="M4.8949 15.1271H18.6949" stroke="#B283EA" stroke-width="1.17949" stroke-linecap="round"/>
<path d="M4.8949 18.9012H18.6949" stroke="#B283EA" stroke-width="1.17949" stroke-linecap="round"/>
<path d="M4.8949 22.6758H18.6949" stroke="#B283EA" stroke-width="1.17949" stroke-linecap="round"/>
<path d="M4.8949 26.4503H12.3846" stroke="#B283EA" stroke-width="1.17949" stroke-linecap="round"/>
<path d="M0.589744 1.29744C0.589744 0.906588 0.906588 0.589744 1.29744 0.589744H14.6256C15.0165 0.589744 15.3333 0.906588 15.3333 1.29744V5.21923C15.3333 6.26149 16.1783 7.10641 17.2205 7.10641H21.7026C22.0934 7.10641 22.4103 7.42326 22.4103 7.8141V28.8974C22.4103 29.2883 22.0934 29.6051 21.7026 29.6051H1.29744C0.906588 29.6051 0.589744 29.2883 0.589744 28.8974V1.29744Z" stroke="#E285E3" stroke-width="1.17949"/>
<path d="M14.9795 0.677734L22.2039 7.28286" stroke="#E285E3" stroke-width="1.17949" stroke-linecap="round"/>
<path fill-rule="evenodd" clip-rule="evenodd" d="M5.93715 2.6543H6.84665V4.23043C7.22743 4.23591 7.57044 4.26467 7.87569 4.31669C8.22053 4.37484 8.51274 4.46586 8.75232 4.58975C8.99552 4.71111 9.17883 4.86534 9.30225 5.05244C9.42929 5.23954 9.49282 5.46204 9.49282 5.71993C9.49282 5.94748 9.41477 6.15607 9.25869 6.3457C9.1026 6.5328 8.8721 6.68576 8.56719 6.80459C8.49874 6.83127 8.42653 6.85553 8.35057 6.87737C8.53829 6.91103 8.70487 6.96009 8.85032 7.02456C9.13346 7.14845 9.34399 7.309 9.48193 7.50621C9.61986 7.70343 9.68883 7.91581 9.68883 8.14336C9.68883 8.4948 9.57812 8.78936 9.3567 9.02702C9.1389 9.26469 8.82491 9.44547 8.41473 9.56935C8.00455 9.69072 7.51089 9.7514 6.93373 9.7514H6.84667V10.9699H5.93717V9.7514H5.38739H5.35236V10.9697H4.44287V9.75159H2.94885L2.94885 8.8421H4.02073V5.13847H2.94889V4.22897L4.44287 4.22897V2.6543H5.35236V4.22946H5.93715V2.6543ZM5.38739 7.25591V8.99668H6.93373C7.24227 8.99668 7.5 8.96128 7.7069 8.89049C7.91381 8.81717 8.06808 8.7173 8.16972 8.59088C8.27498 8.46193 8.32762 8.3115 8.32762 8.13957C8.32762 7.96005 8.28224 7.80456 8.19149 7.67309C8.10075 7.53908 7.95737 7.43668 7.76135 7.36589C7.56534 7.29257 7.30943 7.25591 6.99362 7.25591H5.45817H5.38739ZM5.46906 6.56187H6.72683C7.02448 6.56187 7.27676 6.53153 7.48366 6.47085C7.6942 6.40764 7.85391 6.31788 7.96281 6.20158C8.07171 6.08275 8.12616 5.9399 8.12616 5.77302C8.12616 5.58845 8.07534 5.43802 7.9737 5.32171C7.87206 5.20541 7.71598 5.12071 7.50544 5.06761C7.29854 5.01452 7.03355 4.98797 6.71049 4.98797H5.38739V6.56187H5.46906Z" fill="url(#paint0_linear_1_558)"/>
<defs>
<linearGradient id="paint0_linear_1_558" x1="4.60013" y1="2.6543" x2="6.85494" y2="9.75178" gradientUnits="userSpaceOnUse">
<stop stop-color="#E285E3"/>
<stop offset="1" stop-color="#B283EA"/>
</linearGradient>
</defs>
</svg>
