<svg width="1378" height="486" viewBox="0 0 1378 486" fill="none" xmlns="http://www.w3.org/2000/svg">
<mask id="path-1-inside-1_103_2" fill="white">
<path d="M114.173 216.894C108.738 246.811 113.003 277.683 126.345 305.006C139.688 332.33 161.41 354.676 188.345 368.787C215.279 382.898 246.018 388.036 276.077 383.45C306.137 378.865 333.945 364.797 355.448 343.297C376.95 321.797 391.022 293.991 395.612 263.932C400.201 233.873 395.068 203.134 380.96 176.197C366.853 149.261 344.509 127.535 317.188 114.189C289.866 100.843 258.995 96.5741 229.077 102.005L234.486 131.806C258.054 127.528 282.372 130.891 303.894 141.404C325.416 151.917 343.017 169.031 354.129 190.25C365.242 211.468 369.286 235.682 365.671 259.36C362.055 283.039 350.971 304.943 334.032 321.879C317.094 338.815 295.189 349.897 271.51 353.509C247.831 357.12 223.618 353.074 202.401 341.958C181.183 330.842 164.072 313.239 153.562 291.716C143.051 270.192 139.692 245.874 143.973 222.307L114.173 216.894Z"/>
</mask>
<path d="M114.173 216.894C108.738 246.811 113.003 277.683 126.345 305.006C139.688 332.33 161.41 354.676 188.345 368.787C215.279 382.898 246.018 388.036 276.077 383.45C306.137 378.865 333.945 364.797 355.448 343.297C376.95 321.797 391.022 293.991 395.612 263.932C400.201 233.873 395.068 203.134 380.96 176.197C366.853 149.261 344.509 127.535 317.188 114.189C289.866 100.843 258.995 96.5741 229.077 102.005L234.486 131.806C258.054 127.528 282.372 130.891 303.894 141.404C325.416 151.917 343.017 169.031 354.129 190.25C365.242 211.468 369.286 235.682 365.671 259.36C362.055 283.039 350.971 304.943 334.032 321.879C317.094 338.815 295.189 349.897 271.51 353.509C247.831 357.12 223.618 353.074 202.401 341.958C181.183 330.842 164.072 313.239 153.562 291.716C143.051 270.192 139.692 245.874 143.973 222.307L114.173 216.894Z" stroke="#FF5757" stroke-width="53.7169" mask="url(#path-1-inside-1_103_2)"/>
<path d="M114.173 216.894C108.738 246.811 113.003 277.683 126.345 305.006C139.688 332.33 161.41 354.676 188.345 368.787C215.279 382.898 246.018 388.036 276.077 383.45C306.137 378.865 333.945 364.797 355.448 343.297C376.95 321.797 391.022 293.991 395.612 263.932C400.201 233.873 395.068 203.134 380.96 176.197C366.853 149.261 344.509 127.535 317.188 114.189C289.866 100.843 258.995 96.5741 229.077 102.005L234.486 131.806C258.054 127.528 282.372 130.891 303.894 141.404C325.416 151.917 343.017 169.031 354.129 190.25C365.242 211.468 369.286 235.682 365.671 259.36C362.055 283.039 350.971 304.943 334.032 321.879C317.094 338.815 295.189 349.897 271.51 353.509C247.831 357.12 223.618 353.074 202.401 341.958C181.183 330.842 164.072 313.239 153.562 291.716C143.051 270.192 139.692 245.874 143.973 222.307L114.173 216.894Z" stroke="#6666FF" stroke-width="53.7169" mask="url(#path-1-inside-1_103_2)"/>
<mask id="path-2-inside-2_103_2" fill="white">
<path d="M369.711 418.317C408.19 393.326 437.403 356.398 452.868 313.201C468.333 270.005 469.194 222.926 455.319 179.193C441.445 135.459 413.601 97.4875 376.062 71.1063C338.523 44.7251 293.364 31.3924 247.516 33.1546C201.669 34.9169 157.666 51.6768 122.263 80.8616C86.86 110.047 62.0132 150.043 51.5365 194.713C41.0598 239.382 45.5322 286.256 64.2672 328.138C83.0022 370.02 114.964 404.597 155.248 426.56L173.545 393.001C140.609 375.044 114.476 346.774 99.1585 312.53C83.8406 278.287 80.1839 239.963 88.7498 203.441C97.3156 166.919 117.631 134.217 146.576 110.355C175.522 86.4933 211.499 72.7903 248.984 71.3495C286.47 69.9086 323.393 80.8096 354.085 102.379C384.777 123.949 407.542 154.994 418.886 190.751C430.23 226.508 429.526 265 416.882 300.318C404.238 335.636 380.352 365.829 348.892 386.261L369.711 418.317Z"/>
</mask>
<path d="M369.711 418.317C408.19 393.326 437.403 356.398 452.868 313.201C468.333 270.005 469.194 222.926 455.319 179.193C441.445 135.459 413.601 97.4875 376.062 71.1063C338.523 44.7251 293.364 31.3924 247.516 33.1546C201.669 34.9169 157.666 51.6768 122.263 80.8616C86.86 110.047 62.0132 150.043 51.5365 194.713C41.0598 239.382 45.5322 286.256 64.2672 328.138C83.0022 370.02 114.964 404.597 155.248 426.56L173.545 393.001C140.609 375.044 114.476 346.774 99.1585 312.53C83.8406 278.287 80.1839 239.963 88.7498 203.441C97.3156 166.919 117.631 134.217 146.576 110.355C175.522 86.4933 211.499 72.7903 248.984 71.3495C286.47 69.9086 323.393 80.8096 354.085 102.379C384.777 123.949 407.542 154.994 418.886 190.751C430.23 226.508 429.526 265 416.882 300.318C404.238 335.636 380.352 365.829 348.892 386.261L369.711 418.317Z" stroke="#FF5757" stroke-width="78.8953" mask="url(#path-2-inside-2_103_2)"/>
<path d="M369.711 418.317C408.19 393.326 437.403 356.398 452.868 313.201C468.333 270.005 469.194 222.926 455.319 179.193C441.445 135.459 413.601 97.4875 376.062 71.1063C338.523 44.7251 293.364 31.3924 247.516 33.1546C201.669 34.9169 157.666 51.6768 122.263 80.8616C86.86 110.047 62.0132 150.043 51.5365 194.713C41.0598 239.382 45.5322 286.256 64.2672 328.138C83.0022 370.02 114.964 404.597 155.248 426.56L173.545 393.001C140.609 375.044 114.476 346.774 99.1585 312.53C83.8406 278.287 80.1839 239.963 88.7498 203.441C97.3156 166.919 117.631 134.217 146.576 110.355C175.522 86.4933 211.499 72.7903 248.984 71.3495C286.47 69.9086 323.393 80.8096 354.085 102.379C384.777 123.949 407.542 154.994 418.886 190.751C430.23 226.508 429.526 265 416.882 300.318C404.238 335.636 380.352 365.829 348.892 386.261L369.711 418.317Z" stroke="#FF5757" stroke-width="78.8953" mask="url(#path-2-inside-2_103_2)"/>
<mask id="path-3-inside-3_103_2" fill="white">
<path d="M302.737 172.05C287.425 161.329 269.011 155.946 250.335 156.733C231.66 157.52 213.763 164.432 199.408 176.403C185.052 188.373 175.037 204.737 170.907 222.966C166.777 241.196 168.763 260.278 176.558 277.267C184.353 294.256 197.524 308.206 214.037 316.964C230.55 325.722 249.487 328.801 267.923 325.725C286.36 322.649 303.272 313.59 316.047 299.945C328.823 286.301 336.752 268.831 338.61 250.232L308.492 247.223C307.295 259.208 302.186 270.466 293.953 279.258C285.721 288.05 274.823 293.888 262.943 295.87C251.062 297.852 238.86 295.868 228.219 290.225C217.578 284.581 209.091 275.592 204.068 264.645C199.045 253.697 197.765 241.401 200.426 229.654C203.087 217.907 209.541 207.362 218.792 199.648C228.042 191.935 239.575 187.48 251.609 186.973C263.643 186.467 275.51 189.935 285.376 196.844L302.737 172.05Z"/>
</mask>
<path d="M302.737 172.05C287.425 161.329 269.011 155.946 250.335 156.733C231.66 157.52 213.763 164.432 199.408 176.403C185.052 188.373 175.037 204.737 170.907 222.966C166.777 241.196 168.763 260.278 176.558 277.267C184.353 294.256 197.524 308.206 214.037 316.964C230.55 325.722 249.487 328.801 267.923 325.725C286.36 322.649 303.272 313.59 316.047 299.945C328.823 286.301 336.752 268.831 338.61 250.232L308.492 247.223C307.295 259.208 302.186 270.466 293.953 279.258C285.721 288.05 274.823 293.888 262.943 295.87C251.062 297.852 238.86 295.868 228.219 290.225C217.578 284.581 209.091 275.592 204.068 264.645C199.045 253.697 197.765 241.401 200.426 229.654C203.087 217.907 209.541 207.362 218.792 199.648C228.042 191.935 239.575 187.48 251.609 186.973C263.643 186.467 275.51 189.935 285.376 196.844L302.737 172.05Z" stroke="#FF5757" stroke-width="32.0428" mask="url(#path-3-inside-3_103_2)"/>
<path d="M302.737 172.05C287.425 161.329 269.011 155.946 250.335 156.733C231.66 157.52 213.763 164.432 199.408 176.403C185.052 188.373 175.037 204.737 170.907 222.966C166.777 241.196 168.763 260.278 176.558 277.267C184.353 294.256 197.524 308.206 214.037 316.964C230.55 325.722 249.487 328.801 267.923 325.725C286.36 322.649 303.272 313.59 316.047 299.945C328.823 286.301 336.752 268.831 338.61 250.232L308.492 247.223C307.295 259.208 302.186 270.466 293.953 279.258C285.721 288.05 274.823 293.888 262.943 295.87C251.062 297.852 238.86 295.868 228.219 290.225C217.578 284.581 209.091 275.592 204.068 264.645C199.045 253.697 197.765 241.401 200.426 229.654C203.087 217.907 209.541 207.362 218.792 199.648C228.042 191.935 239.575 187.48 251.609 186.973C263.643 186.467 275.51 189.935 285.376 196.844L302.737 172.05Z" stroke="#5E17EB" stroke-width="32.0428" mask="url(#path-3-inside-3_103_2)"/>
<path d="M542.174 179.965C542.174 170.504 544.221 162.089 548.315 154.72C552.409 147.26 558.094 141.483 565.372 137.389C572.741 133.204 581.066 131.112 590.345 131.112C601.717 131.112 611.451 134.114 619.548 140.118C627.645 146.123 633.058 154.31 635.787 164.682H610.132C608.222 160.679 605.492 157.631 601.944 155.539C598.487 153.446 594.53 152.4 590.072 152.4C582.885 152.4 577.063 154.902 572.605 159.905C568.147 164.909 565.918 171.596 565.918 179.965C565.918 188.335 568.147 195.022 572.605 200.025C577.063 205.029 582.885 207.531 590.072 207.531C594.53 207.531 598.487 206.484 601.944 204.392C605.492 202.3 608.222 199.252 610.132 195.249H635.787C633.058 205.62 627.645 213.808 619.548 219.812C611.451 225.726 601.717 228.682 590.345 228.682C581.066 228.682 572.741 226.635 565.372 222.542C558.094 218.357 552.409 212.58 548.315 205.211C544.221 197.842 542.174 189.427 542.174 179.965ZM673.412 164.545C676.141 160.36 679.553 157.085 683.647 154.72C687.741 152.263 692.289 151.035 697.293 151.035V175.735H690.879C685.057 175.735 680.69 177.009 677.779 179.556C674.868 182.012 673.412 186.379 673.412 192.656V228H650.077V151.854H673.412V164.545ZM786.23 151.854L738.468 264.162H713.359L730.826 225.407L699.85 151.854H725.914L743.517 199.479L760.985 151.854H786.23ZM818.003 162.635C820.278 159.087 823.416 156.221 827.419 154.037C831.422 151.854 836.107 150.762 841.475 150.762C847.752 150.762 853.438 152.354 858.533 155.539C863.627 158.723 867.63 163.271 870.541 169.185C873.544 175.098 875.045 181.967 875.045 189.791C875.045 197.614 873.544 204.528 870.541 210.533C867.63 216.446 863.627 221.04 858.533 224.316C853.438 227.5 847.752 229.092 841.475 229.092C836.198 229.092 831.513 228 827.419 225.817C823.416 223.633 820.278 220.813 818.003 217.356V264.299H794.668V151.854H818.003V162.635ZM851.3 189.791C851.3 183.968 849.663 179.419 846.388 176.144C843.203 172.778 839.246 171.095 834.515 171.095C829.876 171.095 825.918 172.778 822.643 176.144C819.459 179.51 817.867 184.105 817.867 189.927C817.867 195.749 819.459 200.344 822.643 203.71C825.918 207.076 829.876 208.759 834.515 208.759C839.155 208.759 843.112 207.076 846.388 203.71C849.663 200.253 851.3 195.613 851.3 189.791ZM929.727 208.213V228H917.854C909.394 228 902.798 225.953 898.067 221.859C893.337 217.674 890.971 210.897 890.971 201.526V171.232H881.692V151.854H890.971V133.295H914.306V151.854H929.59V171.232H914.306V201.799C914.306 204.074 914.852 205.711 915.944 206.712C917.036 207.713 918.855 208.213 921.402 208.213H929.727ZM977.386 229.092C969.926 229.092 963.194 227.5 957.19 224.316C951.276 221.131 946.591 216.583 943.134 210.669C939.768 204.756 938.085 197.842 938.085 189.927C938.085 182.103 939.813 175.235 943.27 169.321C946.727 163.317 951.458 158.723 957.462 155.539C963.467 152.354 970.199 150.762 977.659 150.762C985.119 150.762 991.851 152.354 997.855 155.539C1003.86 158.723 1008.59 163.317 1012.05 169.321C1015.5 175.235 1017.23 182.103 1017.23 189.927C1017.23 197.751 1015.46 204.665 1011.91 210.669C1008.45 216.583 1003.68 221.131 997.582 224.316C991.578 227.5 984.846 229.092 977.386 229.092ZM977.386 208.895C981.844 208.895 985.619 207.258 988.712 203.983C991.896 200.708 993.489 196.022 993.489 189.927C993.489 183.832 991.942 179.147 988.849 175.871C985.847 172.596 982.117 170.959 977.659 170.959C973.11 170.959 969.335 172.596 966.333 175.871C963.33 179.056 961.829 183.741 961.829 189.927C961.829 196.022 963.285 200.708 966.196 203.983C969.198 207.258 972.928 208.895 977.386 208.895ZM1102.62 163.044C1102.62 168.593 1101.35 173.688 1098.8 178.328C1096.25 182.876 1092.34 186.561 1087.06 189.381C1081.79 192.201 1075.24 193.612 1067.41 193.612H1052.95V228H1029.61V132.204H1067.41C1075.05 132.204 1081.51 133.523 1086.79 136.161C1092.07 138.799 1096.02 142.438 1098.66 147.078C1101.3 151.718 1102.62 157.04 1102.62 163.044ZM1065.64 175.053C1070.1 175.053 1073.42 174.006 1075.6 171.914C1077.78 169.822 1078.88 166.865 1078.88 163.044C1078.88 159.223 1077.78 156.266 1075.6 154.174C1073.42 152.082 1070.1 151.035 1065.64 151.035H1052.95V175.053H1065.64ZM1149.43 229.092C1141.97 229.092 1135.24 227.5 1129.23 224.316C1123.32 221.131 1118.63 216.583 1115.18 210.669C1111.81 204.756 1110.13 197.842 1110.13 189.927C1110.13 182.103 1111.86 175.235 1115.31 169.321C1118.77 163.317 1123.5 158.723 1129.51 155.539C1135.51 152.354 1142.24 150.762 1149.7 150.762C1157.16 150.762 1163.89 152.354 1169.9 155.539C1175.9 158.723 1180.63 163.317 1184.09 169.321C1187.55 175.235 1189.28 182.103 1189.28 189.927C1189.28 197.751 1187.5 204.665 1183.95 210.669C1180.5 216.583 1175.72 221.131 1169.63 224.316C1163.62 227.5 1156.89 229.092 1149.43 229.092ZM1149.43 208.895C1153.89 208.895 1157.66 207.258 1160.76 203.983C1163.94 200.708 1165.53 196.022 1165.53 189.927C1165.53 183.832 1163.99 179.147 1160.89 175.871C1157.89 172.596 1154.16 170.959 1149.7 170.959C1145.15 170.959 1141.38 172.596 1138.38 175.871C1135.37 179.056 1133.87 183.741 1133.87 189.927C1133.87 196.022 1135.33 200.708 1138.24 203.983C1141.24 207.258 1144.97 208.895 1149.43 208.895ZM1236.32 229.092C1228.86 229.092 1222.13 227.5 1216.12 224.316C1210.21 221.131 1205.52 216.583 1202.07 210.669C1198.7 204.756 1197.02 197.842 1197.02 189.927C1197.02 182.103 1198.75 175.235 1202.2 169.321C1205.66 163.317 1210.39 158.723 1216.39 155.539C1222.4 152.354 1229.13 150.762 1236.59 150.762C1244.05 150.762 1250.78 152.354 1256.79 155.539C1262.79 158.723 1267.52 163.317 1270.98 169.321C1274.44 175.235 1276.16 182.103 1276.16 189.927C1276.16 197.751 1274.39 204.665 1270.84 210.669C1267.39 216.583 1262.61 221.131 1256.51 224.316C1250.51 227.5 1243.78 229.092 1236.32 229.092ZM1236.32 208.895C1240.78 208.895 1244.55 207.258 1247.64 203.983C1250.83 200.708 1252.42 196.022 1252.42 189.927C1252.42 183.832 1250.87 179.147 1247.78 175.871C1244.78 172.596 1241.05 170.959 1236.59 170.959C1232.04 170.959 1228.27 172.596 1225.26 175.871C1222.26 179.056 1220.76 183.741 1220.76 189.927C1220.76 196.022 1222.22 200.708 1225.13 203.983C1228.13 207.258 1231.86 208.895 1236.32 208.895ZM1311.88 127.018V228H1288.54V127.018H1311.88Z" fill="#181818"/>
<path d="M640.795 303.004V337.693H636.233V311.827L624.704 337.693H621.495L609.916 311.777V337.693H605.354V303.004H610.266L623.099 331.678L635.933 303.004H640.795ZM676.203 329.923H660.963L658.156 337.693H653.344L665.976 302.954H671.24L683.822 337.693H679.01L676.203 329.923ZM674.899 326.214L668.583 308.568L662.267 326.214H674.899ZM715.295 337.693L700.907 321.752V337.693H696.346V302.753H700.907V318.945L715.345 302.753H721.109L705.269 320.248L721.26 337.693H715.295ZM737.934 302.753V337.693H733.373V302.753H737.934ZM780.198 337.693H775.636L757.289 309.872V337.693H752.727V302.703H757.289L775.636 330.475V302.703H780.198V337.693ZM821.46 312.88C820.491 310.841 819.087 309.27 817.249 308.167C815.411 307.031 813.273 306.463 810.833 306.463C808.393 306.463 806.188 307.031 804.216 308.167C802.278 309.27 800.74 310.874 799.604 312.98C798.501 315.052 797.95 317.458 797.95 320.198C797.95 322.939 798.501 325.345 799.604 327.417C800.74 329.489 802.278 331.093 804.216 332.229C806.188 333.332 808.393 333.884 810.833 333.884C814.242 333.884 817.049 332.864 819.255 330.826C821.46 328.787 822.747 326.03 823.115 322.554H809.179V318.845H827.977V322.354C827.71 325.228 826.807 327.868 825.27 330.274C823.733 332.647 821.711 334.535 819.204 335.939C816.698 337.309 813.907 337.994 810.833 337.994C807.591 337.994 804.634 337.242 801.96 335.738C799.287 334.201 797.164 332.079 795.594 329.372C794.056 326.665 793.288 323.607 793.288 320.198C793.288 316.79 794.056 313.732 795.594 311.025C797.164 308.284 799.287 306.162 801.96 304.658C804.634 303.121 807.591 302.352 810.833 302.352C814.542 302.352 817.818 303.271 820.658 305.11C823.532 306.948 825.621 309.538 826.924 312.88H821.46ZM859.705 320.198C859.705 316.79 860.473 313.732 862.011 311.025C863.548 308.284 865.637 306.146 868.277 304.608C870.95 303.071 873.908 302.302 877.15 302.302C880.959 302.302 884.285 303.221 887.125 305.059C889.966 306.897 892.038 309.504 893.341 312.88H887.877C886.908 310.774 885.504 309.153 883.666 308.017C881.862 306.881 879.689 306.313 877.15 306.313C874.71 306.313 872.521 306.881 870.583 308.017C868.644 309.153 867.124 310.774 866.021 312.88C864.918 314.952 864.367 317.391 864.367 320.198C864.367 322.972 864.918 325.412 866.021 327.517C867.124 329.589 868.644 331.193 870.583 332.33C872.521 333.466 874.71 334.034 877.15 334.034C879.689 334.034 881.862 333.483 883.666 332.38C885.504 331.243 886.908 329.623 887.877 327.517H893.341C892.038 330.859 889.966 333.449 887.125 335.287C884.285 337.092 880.959 337.994 877.15 337.994C873.908 337.994 870.95 337.242 868.277 335.738C865.637 334.201 863.548 332.079 862.011 329.372C860.473 326.665 859.705 323.607 859.705 320.198ZM925.547 337.693L917.226 323.407H911.712V337.693H907.15V302.753H918.429C921.069 302.753 923.291 303.205 925.096 304.107C926.934 305.009 928.304 306.229 929.207 307.766C930.109 309.304 930.56 311.058 930.56 313.03C930.56 315.436 929.858 317.558 928.455 319.396C927.084 321.234 925.012 322.454 922.239 323.056L931.011 337.693H925.547ZM911.712 319.747H918.429C920.902 319.747 922.757 319.146 923.993 317.943C925.23 316.706 925.848 315.068 925.848 313.03C925.848 310.958 925.23 309.354 923.993 308.218C922.79 307.081 920.935 306.513 918.429 306.513H911.712V319.747ZM969.129 302.753L957.75 324.509V337.693H953.188V324.509L941.759 302.753H946.822L955.444 320.449L964.066 302.753H969.129ZM1004.32 312.98C1004.32 315.887 1003.32 318.31 1001.31 320.248C999.34 322.153 996.315 323.106 992.238 323.106H985.521V337.693H980.959V302.753H992.238C996.181 302.753 999.172 303.706 1001.21 305.611C1003.28 307.516 1004.32 309.972 1004.32 312.98ZM992.238 319.346C994.778 319.346 996.649 318.795 997.852 317.692C999.055 316.589 999.657 315.018 999.657 312.98C999.657 308.669 997.184 306.513 992.238 306.513H985.521V319.346H992.238ZM1038.51 302.753V306.463H1028.99V337.693H1024.43V306.463H1014.85V302.753H1038.51ZM1066.99 338.044C1063.74 338.044 1060.79 337.292 1058.11 335.788C1055.44 334.251 1053.32 332.129 1051.75 329.422C1050.21 326.682 1049.44 323.607 1049.44 320.198C1049.44 316.79 1050.21 313.732 1051.75 311.025C1053.32 308.284 1055.44 306.162 1058.11 304.658C1060.79 303.121 1063.74 302.352 1066.99 302.352C1070.26 302.352 1073.24 303.121 1075.91 304.658C1078.58 306.162 1080.69 308.268 1082.23 310.975C1083.76 313.682 1084.53 316.756 1084.53 320.198C1084.53 323.641 1083.76 326.715 1082.23 329.422C1080.69 332.129 1078.58 334.251 1075.91 335.788C1073.24 337.292 1070.26 338.044 1066.99 338.044ZM1066.99 334.084C1069.43 334.084 1071.61 333.516 1073.55 332.38C1075.52 331.243 1077.06 329.623 1078.16 327.517C1079.3 325.412 1079.87 322.972 1079.87 320.198C1079.87 317.391 1079.3 314.952 1078.16 312.88C1077.06 310.774 1075.54 309.153 1073.6 308.017C1071.66 306.881 1069.46 306.313 1066.99 306.313C1064.51 306.313 1062.31 306.881 1060.37 308.017C1058.43 309.153 1056.89 310.774 1055.76 312.88C1054.65 314.952 1054.1 317.391 1054.1 320.198C1054.1 322.972 1054.65 325.412 1055.76 327.517C1056.89 329.623 1058.43 331.243 1060.37 332.38C1062.34 333.516 1064.55 334.084 1066.99 334.084ZM1122.52 306.463V318.143H1135.25V321.903H1122.52V333.934H1136.75V337.693H1117.95V302.703H1136.75V306.463H1122.52ZM1171.33 329.923H1156.09L1153.28 337.693H1148.47L1161.1 302.954H1166.36L1178.95 337.693H1174.13L1171.33 329.923ZM1170.02 326.214L1163.71 308.568L1157.39 326.214H1170.02ZM1202.55 338.044C1200.24 338.044 1198.17 337.643 1196.33 336.841C1194.53 336.006 1193.11 334.869 1192.07 333.432C1191.03 331.962 1190.5 330.274 1190.47 328.369H1195.33C1195.5 330.007 1196.16 331.394 1197.33 332.53C1198.54 333.633 1200.28 334.184 1202.55 334.184C1204.72 334.184 1206.42 333.65 1207.66 332.58C1208.93 331.477 1209.57 330.074 1209.57 328.369C1209.57 327.033 1209.2 325.946 1208.46 325.111C1207.73 324.276 1206.81 323.641 1205.71 323.206C1204.6 322.772 1203.12 322.304 1201.24 321.802C1198.94 321.201 1197.08 320.599 1195.68 319.998C1194.31 319.396 1193.12 318.461 1192.12 317.191C1191.15 315.887 1190.67 314.149 1190.67 311.977C1190.67 310.072 1191.15 308.385 1192.12 306.914C1193.09 305.444 1194.44 304.307 1196.18 303.505C1197.95 302.703 1199.97 302.302 1202.25 302.302C1205.52 302.302 1208.2 303.121 1210.27 304.759C1212.37 306.396 1213.56 308.568 1213.83 311.275H1208.81C1208.65 309.939 1207.95 308.769 1206.71 307.766C1205.47 306.73 1203.83 306.212 1201.8 306.212C1199.89 306.212 1198.34 306.714 1197.13 307.716C1195.93 308.685 1195.33 310.056 1195.33 311.827C1195.33 313.097 1195.68 314.133 1196.38 314.935C1197.12 315.737 1198 316.355 1199.04 316.79C1200.11 317.191 1201.6 317.658 1203.5 318.193C1205.81 318.828 1207.66 319.463 1209.06 320.098C1210.47 320.7 1211.67 321.652 1212.67 322.955C1213.68 324.225 1214.18 325.963 1214.18 328.169C1214.18 329.873 1213.73 331.477 1212.82 332.981C1211.92 334.485 1210.59 335.705 1208.81 336.641C1207.04 337.576 1204.95 338.044 1202.55 338.044ZM1252.37 302.753L1240.99 324.509V337.693H1236.43V324.509L1225 302.753H1230.06L1238.69 320.449L1247.31 302.753H1252.37Z" fill="#181818"/>
</svg>
