<svg width="22" height="22" viewBox="0 0 22 22" fill="none" xmlns="http://www.w3.org/2000/svg">
<path d="M15.575 8.36916L6.07495 3.19922" stroke="#585858" stroke-width="1.78344" stroke-linecap="round" stroke-linejoin="round"/>
<path d="M20.325 14.9438V6.97477C20.3246 6.6254 20.2268 6.28226 20.0416 5.97979C19.8563 5.67732 19.59 5.42614 19.2694 5.25145L11.8805 1.26691C11.5596 1.09206 11.1955 1 10.825 1C10.4544 1 10.0903 1.09206 9.7694 1.26691L2.38051 5.25145C2.05989 5.42614 1.7936 5.67732 1.60833 5.97979C1.42306 6.28226 1.32533 6.6254 1.32495 6.97477V14.9438C1.32533 15.2932 1.42306 15.6363 1.60833 15.9388C1.7936 16.2413 2.05989 16.4925 2.38051 16.6672L9.7694 20.6517C10.0903 20.8266 10.4544 20.9186 10.825 20.9186C11.1955 20.9186 11.5596 20.8266 11.8805 20.6517L19.2694 16.6672C19.59 16.4925 19.8563 16.2413 20.0416 15.9388C20.2268 15.6363 20.3246 15.2932 20.325 14.9438Z" stroke="#585858" stroke-width="1.78344" stroke-linecap="round" stroke-linejoin="round"/>
<path d="M1.60986 5.93867L10.8249 10.9692L20.0399 5.93867" stroke="#585858" stroke-width="1.78344" stroke-linecap="round" stroke-linejoin="round"/>
<path d="M10.825 21V10.959" stroke="#585858" stroke-width="1.78344" stroke-linecap="round" stroke-linejoin="round"/>
</svg>
