<svg width="30" height="29" viewBox="0 0 30 29" fill="none" xmlns="http://www.w3.org/2000/svg">
<path d="M25.4635 7.43335H26.7661" stroke="#AF82EA" stroke-width="0.822665" stroke-linecap="round"/>
<path d="M22.5156 26.4919V28.0002" stroke="#AF82EA" stroke-width="0.822665" stroke-linecap="round"/>
<path d="M26.6975 19.2939V21.0764H24.9836" stroke="#AF82EA" stroke-width="0.822665" stroke-linecap="round"/>
<path d="M25.2578 16.5508H27.383" stroke="#AF82EA" stroke-width="0.822665" stroke-linecap="round"/>
<path d="M28.9597 13.3976V17.648H28.1371" stroke="#AF82EA" stroke-width="0.822665" stroke-linecap="round"/>
<path d="M20.3218 13.2607H21.2816" stroke="#AF82EA" stroke-width="0.822665" stroke-linecap="round"/>
<path d="M11.4781 12.7803H12.7121" stroke="#AF82EA" stroke-width="0.822665" stroke-linecap="round"/>
<path d="M11.2726 7.50208V8.46185" stroke="#AF82EA" stroke-width="0.822665" stroke-linecap="round"/>
<path d="M22.2413 24.5721H23.9552" stroke="#AF82EA" stroke-width="0.822665" stroke-linecap="round"/>
<path d="M27.7258 23.4755V24.5038" stroke="#AF82EA" stroke-width="0.822665" stroke-linecap="round"/>
<path d="M29.234 26.6974H25.3949V27.9314" stroke="#AF82EA" stroke-width="0.822665" stroke-linecap="round"/>
<path d="M1.88037 15.3174H2.84015V18.1967" stroke="#AF82EA" stroke-width="0.822665" stroke-linecap="round"/>
<path d="M1.81189 21.1445H5.37677V16.6884" stroke="#AF82EA" stroke-width="0.822665" stroke-linecap="round"/>
<path d="M7.09058 14.9745V16.894H9.01013" stroke="#AF82EA" stroke-width="0.822665" stroke-linecap="round"/>
<path d="M8.18762 20.5957V21.8297H9.21595" stroke="#AF82EA" stroke-width="0.822665" stroke-linecap="round"/>
<path d="M14.7003 23.3385V20.0479H17.2369" stroke="#AF82EA" stroke-width="0.822665" stroke-linecap="round"/>
<path d="M20.5961 21.8986V22.9954" stroke="#AF82EA" stroke-width="0.822665" stroke-linecap="round"/>
<path d="M20.3218 26.3545H18.6765V27.9313" stroke="#AF82EA" stroke-width="0.822665" stroke-linecap="round"/>
<path d="M10.1072 26.0804H11.2726V24.9835H15.5231" stroke="#AF82EA" stroke-width="0.822665" stroke-linecap="round"/>
<path d="M8.66748 26.6974V27.9999H10.587" stroke="#AF82EA" stroke-width="0.822665" stroke-linecap="round"/>
<path d="M17.3739 8.32422H19.4991" stroke="#AF82EA" stroke-width="0.822665" stroke-linecap="round"/>
<path d="M18.3337 10.3127V11.1354" stroke="#AF82EA" stroke-width="0.822665" stroke-linecap="round"/>
<path d="M18.5394 14.8369V17.9219H16.4142" stroke="#AF82EA" stroke-width="0.822665" stroke-linecap="round"/>
<path d="M22.447 21.0078V23.133H25.6691" stroke="#AF82EA" stroke-width="0.822665" stroke-linecap="round"/>
<path d="M17.7167 12.5068H19.2249" stroke="#AF82EA" stroke-width="0.822665" stroke-linecap="round"/>
<path d="M28.2057 9.07812V11.6832" stroke="#AF82EA" stroke-width="0.822665" stroke-linecap="round"/>
<path d="M23.2698 14.2889H26.4233V12.6436" stroke="#AF82EA" stroke-width="0.822665" stroke-linecap="round"/>
<path d="M19.7733 1.67456H21.3501V5.10233" stroke="#AF82EA" stroke-width="0.822665" stroke-linecap="round"/>
<path d="M21.3502 7.57043V9.0101H22.5157" stroke="#AF82EA" stroke-width="0.822665" stroke-linecap="round"/>
<path d="M2.01758 7.2959H3.04591V8.39279" stroke="#AF82EA" stroke-width="0.822665" stroke-linecap="round"/>
<path d="M1.94897 9.83301V11.067H3.04586" stroke="#AF82EA" stroke-width="0.822665" stroke-linecap="round"/>
<path d="M6.47363 10.1064V11.0662H10.1071" stroke="#AF82EA" stroke-width="0.822665" stroke-linecap="round"/>
<path d="M8.73604 5.85657V8.05034H6.06238" stroke="#AF82EA" stroke-width="0.822665" stroke-linecap="round"/>
<path d="M21.3502 11.8899V10.793H26.3548" stroke="#AF82EA" stroke-width="0.822665" stroke-linecap="round"/>
<path d="M16.5513 3.18262V5.10217H17.4425" stroke="#AF82EA" stroke-width="0.822665" stroke-linecap="round"/>
<path d="M14.7689 14.3575V15.9343H11.8895" stroke="#AF82EA" stroke-width="0.822665" stroke-linecap="round"/>
<path d="M12.9864 19.842V22.7899H11.5468" stroke="#AF82EA" stroke-width="0.822665" stroke-linecap="round"/>
<path d="M21.5558 15.1807V19.2254H24.5722" stroke="#AF82EA" stroke-width="0.822665" stroke-linecap="round"/>
<path d="M7.22779 12.5068H5.44535V13.5352H4.27991V14.7006" stroke="#AF82EA" stroke-width="0.822665" stroke-linecap="round"/>
<path d="M13.809 1.6062V10.7926H12.8492" stroke="#AF82EA" stroke-width="0.822665" stroke-linecap="round"/>
<path d="M8.2561 0.715088H11.3411V5.10263" stroke="#AF82EA" stroke-width="0.822665" stroke-linecap="round"/>
<rect x="0.435817" y="0.435817" width="5.2298" height="5.2298" stroke="#E284E2" stroke-width="0.871633"/>
<rect x="22.8142" y="0.465236" width="5.2298" height="5.2298" stroke="#E284E2" stroke-width="0.871633"/>
<rect x="0.465236" y="22.2657" width="5.2298" height="5.2298" stroke="#E284E2" stroke-width="0.871633"/>
<rect x="1.81189" y="1.53711" width="2.74222" height="2.74222" fill="#AF82EA"/>
<rect x="24.1903" y="1.56641" width="2.74222" height="2.74222" fill="#AF82EA"/>
<rect x="1.84131" y="23.3682" width="2.74222" height="2.74222" fill="#AF82EA"/>
</svg>
