<svg width="11" height="15" viewBox="0 0 11 15" fill="none" xmlns="http://www.w3.org/2000/svg">
<path d="M10.0293 4.30664L9.55078 6.03516H0.410156L0.888672 4.30664H10.0293ZM5.60547 15L0.693359 9.20898L0.683594 7.75391H3.01758C3.62305 7.75391 4.12109 7.64648 4.51172 7.43164C4.90885 7.21029 5.20508 6.91406 5.40039 6.54297C5.5957 6.16536 5.69336 5.74544 5.69336 5.2832C5.69336 4.7819 5.60221 4.33919 5.41992 3.95508C5.23763 3.57096 4.94792 3.27148 4.55078 3.05664C4.15365 2.8418 3.62956 2.73438 2.97852 2.73438H0.419922L0.947266 0.78125H2.97852C4.13086 0.78125 5.08789 0.953776 5.84961 1.29883C6.61133 1.64388 7.18099 2.14518 7.55859 2.80273C7.94271 3.46029 8.13477 4.25456 8.13477 5.18555C8.13477 5.99935 7.99479 6.71875 7.71484 7.34375C7.4349 7.96224 6.98242 8.46354 6.35742 8.84766C5.73242 9.22526 4.90234 9.45964 3.86719 9.55078L8.35938 14.873V15H5.60547ZM10.0391 0.78125L9.55078 2.50977H2.08008L2.55859 0.78125H10.0391Z" fill="#1D1D20"/>
</svg>
