<svg width="20" height="17" viewBox="0 0 20 17" fill="none" xmlns="http://www.w3.org/2000/svg">
<path d="M6.29076 16.9997C7.82679 17.0111 9.34965 16.7025 10.7708 16.0919C12.1919 15.4812 13.4829 14.5806 14.5687 13.4426C15.6546 12.3046 16.5135 10.9517 17.0956 9.46282C17.6777 7.9739 17.9714 6.37861 17.9595 4.76973C17.9595 4.58252 17.9595 4.39754 17.9467 4.21256C18.7523 3.60355 19.4476 2.84882 20 1.98387C19.2512 2.33146 18.4569 2.55947 17.6435 2.66028C18.4994 2.12649 19.1413 1.28547 19.45 0.293402C18.6449 0.794187 17.7641 1.14731 16.8456 1.33755C16.2252 0.655038 15.4083 0.204409 14.5201 0.0547108C13.6318 -0.0949876 12.7212 0.0645031 11.9278 0.508743C11.1343 0.952983 10.5019 1.65747 10.1272 2.51424C9.75262 3.37101 9.65654 4.33281 9.85371 5.25225C8.22105 5.16742 6.6237 4.72375 5.16544 3.95006C3.70718 3.17636 2.42064 2.08995 1.38944 0.761428C0.865202 1.70934 0.705414 2.83082 0.942577 3.89775C1.17974 4.96467 1.79604 5.89689 2.6661 6.50477C2.01292 6.48296 1.37434 6.29683 0.804298 5.96209C0.804298 5.98103 0.804298 5.99774 0.804298 6.01669C0.804345 7.00868 1.13191 7.97013 1.73145 8.73805C2.33099 9.50596 3.16562 10.0331 4.09383 10.23C3.48948 10.4023 2.85547 10.4271 2.24054 10.3025C2.50358 11.157 3.01494 11.9041 3.70314 12.4393C4.39135 12.9746 5.22202 13.2712 6.07905 13.2878C4.62486 14.4837 2.8287 15.1322 0.979839 15.1287C0.652382 15.1288 0.325202 15.1087 0 15.0685C1.87655 16.3311 4.06043 17.0011 6.29076 16.9986" fill="#2F80ED"/>
</svg>
