<svg width="28" height="28" viewBox="0 0 28 28" fill="none" xmlns="http://www.w3.org/2000/svg">
<path d="M13.5452 12.8018C14.5324 13.154 16.6804 13.9202 17.1911 12.4252C17.7124 10.8956 15.6177 10.2451 14.5921 9.92664C14.4759 9.89056 14.3733 9.85871 14.29 9.83036L13.3051 12.7175C13.3739 12.7407 13.4547 12.7696 13.5452 12.8018Z" fill="#F67952"/>
<path d="M12.0041 17.4539C13.1865 17.8736 15.7727 18.7915 16.3343 17.1441C16.909 15.4597 14.393 14.6721 13.1654 14.2877C13.0284 14.2449 12.907 14.2069 12.8082 14.1733L11.7222 17.3552C11.8031 17.3826 11.8981 17.4163 12.0041 17.4539Z" fill="#F67952"/>
<path fill-rule="evenodd" clip-rule="evenodd" d="M27.2323 14.9056C26.6104 22.3352 20.0835 27.854 12.6538 27.2323C5.22423 26.6105 -0.294576 20.0836 0.327243 12.6539C0.949063 5.22432 7.47604 -0.294528 14.9057 0.327245C22.3353 0.949019 27.8541 7.47596 27.2323 14.9056ZM17.43 9.05215C19.2475 9.85135 20.5358 10.9281 20.1174 12.6964C19.8126 13.9913 19.0299 14.5644 18.0419 14.7053C19.3142 15.5064 19.6579 16.8532 19.1043 18.4007C18.1139 20.6115 16.197 20.6442 13.7086 19.9565L12.8898 22.3536L11.4386 21.8612L12.2462 19.4962C11.87 19.369 11.4858 19.2344 11.0904 19.092L10.2793 21.4685L8.82977 20.9763L9.64818 18.5741L6.72585 17.574L7.60371 15.945C7.60371 15.945 8.67227 16.325 8.65883 16.3027C9.06987 16.4412 9.2793 16.1844 9.3679 16.0097L11.5877 9.50337C11.6325 9.1912 11.5566 8.78677 10.9688 8.5868C10.9929 8.57273 9.91442 8.23007 9.91442 8.23007L10.4408 6.68602L13.3684 7.67383L14.1794 5.29899L15.6297 5.79135L14.8354 8.11931C15.2264 8.24266 15.619 8.36784 16.0002 8.49714L16.7891 6.18397L18.2402 6.6764L17.43 9.05215Z" fill="#F67952"/>
</svg>
