<svg width="25" height="25" viewBox="0 0 25 25" fill="none" xmlns="http://www.w3.org/2000/svg">
<path d="M12.2912 11.6166C13.187 11.9361 15.1361 12.6314 15.5995 11.2748C16.0726 9.8868 14.1718 9.29656 13.2412 9.00756C13.1357 8.97482 13.0427 8.94592 12.967 8.92019L12.0733 11.54C12.1358 11.5611 12.2091 11.5873 12.2912 11.6166Z" fill="#D5D5D5"/>
<path d="M10.8927 15.8379C11.9657 16.2187 14.3125 17.0517 14.8221 15.5568C15.3436 14.0283 13.0605 13.3136 11.9465 12.9649C11.8222 12.926 11.7121 12.8915 11.6225 12.8611L10.637 15.7483C10.7104 15.7732 10.7966 15.8038 10.8927 15.8379Z" fill="#D5D5D5"/>
<path fill-rule="evenodd" clip-rule="evenodd" d="M24.711 13.5255C24.1468 20.2672 18.2241 25.2751 11.4824 24.7109C4.74064 24.1467 -0.267196 18.2241 0.29705 11.4823C0.861297 4.74061 6.78396 -0.267258 13.5257 0.296947C20.2674 0.861152 25.2752 6.78378 24.711 13.5255ZM15.8163 8.21404C17.4655 8.93924 18.6346 9.91632 18.2549 11.5208C17.9783 12.6959 17.2681 13.2159 16.3716 13.3438C17.526 14.0707 17.8379 15.2928 17.3355 16.6971C16.4369 18.7031 14.6975 18.7328 12.4395 18.1088L11.6964 20.2839L10.3796 19.8371L11.1125 17.6911C10.7711 17.5757 10.4225 17.4535 10.0637 17.3243L9.32763 19.4808L8.01235 19.0341L8.75499 16.8544L6.10323 15.9469L6.89981 14.4687C6.89981 14.4687 7.86944 14.8135 7.85724 14.7933C8.23022 14.919 8.42026 14.6859 8.50065 14.5274L10.5149 8.62348C10.5556 8.34021 10.4867 7.97322 9.95331 7.79177C9.97521 7.779 8.99657 7.46807 8.99657 7.46807L9.47419 6.06698L12.1307 6.96333L12.8667 4.80837L14.1827 5.25514L13.4619 7.36756C13.8168 7.47949 14.173 7.59308 14.5189 7.71041L15.2347 5.61141L16.5515 6.05825L15.8163 8.21404Z" fill="#D5D5D5"/>
</svg>
