<svg width="12" height="12" viewBox="0 0 12 12" fill="none" xmlns="http://www.w3.org/2000/svg">
<path d="M6.7 0.719818C6.7 0.333219 6.3866 0.0198181 6 0.0198181C5.6134 0.0198181 5.3 0.333219 5.3 0.719818L6.7 0.719818ZM5.50503 10.8148C5.77839 11.0882 6.22161 11.0882 6.49497 10.8148L10.9497 6.36002C11.2231 6.08665 11.2231 5.64344 10.9497 5.37007C10.6764 5.0967 10.2332 5.0967 9.9598 5.37007L6 9.32987L2.0402 5.37007C1.76684 5.0967 1.32362 5.0967 1.05025 5.37007C0.776886 5.64344 0.776886 6.08665 1.05025 6.36002L5.50503 10.8148ZM5.3 0.719818L5.3 10.3198H6.7L6.7 0.719818L5.3 0.719818Z" fill="#D8494A"/>
</svg>
