<svg width="45" height="22" viewBox="0 0 45 22" fill="none" xmlns="http://www.w3.org/2000/svg">
<rect width="45" height="22" rx="11" fill="url(#paint0_linear_1_4)"/>
<path d="M17.4229 11.3486H15.5723V10.377H17.4229C17.7451 10.377 18.0055 10.3249 18.2041 10.2207C18.4027 10.1165 18.5475 9.97331 18.6387 9.79102C18.7331 9.60547 18.7803 9.39388 18.7803 9.15625C18.7803 8.93164 18.7331 8.72168 18.6387 8.52637C18.5475 8.3278 18.4027 8.16829 18.2041 8.04785C18.0055 7.92741 17.7451 7.86719 17.4229 7.86719H15.9482V14H14.7227V6.89062H17.4229C17.973 6.89062 18.4401 6.98828 18.8242 7.18359C19.2116 7.37565 19.5062 7.64258 19.708 7.98438C19.9098 8.32292 20.0107 8.71029 20.0107 9.14648C20.0107 9.60547 19.9098 9.99935 19.708 10.3281C19.5062 10.6569 19.2116 10.9092 18.8242 11.085C18.4401 11.2607 17.973 11.3486 17.4229 11.3486ZM23.9121 12.9404V10.4209C23.9121 10.2321 23.8779 10.0693 23.8096 9.93262C23.7412 9.7959 23.637 9.6901 23.4971 9.61523C23.3604 9.54036 23.1878 9.50293 22.9795 9.50293C22.7874 9.50293 22.6214 9.53548 22.4814 9.60059C22.3415 9.66569 22.2324 9.75358 22.1543 9.86426C22.0762 9.97493 22.0371 10.1003 22.0371 10.2402H20.8652C20.8652 10.0319 20.9157 9.83008 21.0166 9.63477C21.1175 9.43945 21.264 9.2653 21.4561 9.1123C21.6481 8.95931 21.8776 8.83887 22.1445 8.75098C22.4115 8.66309 22.7109 8.61914 23.043 8.61914C23.4401 8.61914 23.7917 8.68587 24.0977 8.81934C24.4069 8.9528 24.6494 9.15462 24.8252 9.4248C25.0042 9.69173 25.0938 10.027 25.0938 10.4307V12.7793C25.0938 13.0202 25.11 13.2367 25.1426 13.4287C25.1784 13.6175 25.2288 13.7819 25.2939 13.9219V14H24.0879C24.0326 13.873 23.9886 13.7119 23.9561 13.5166C23.9268 13.318 23.9121 13.126 23.9121 12.9404ZM24.083 10.7871L24.0928 11.5146H23.248C23.0299 11.5146 22.8379 11.5358 22.6719 11.5781C22.5059 11.6172 22.3675 11.6758 22.2568 11.7539C22.1462 11.832 22.0632 11.9264 22.0078 12.0371C21.9525 12.1478 21.9248 12.2731 21.9248 12.4131C21.9248 12.5531 21.9574 12.6816 22.0225 12.7988C22.0876 12.9128 22.182 13.0023 22.3057 13.0674C22.4326 13.1325 22.5856 13.165 22.7646 13.165C23.0055 13.165 23.2155 13.1162 23.3945 13.0186C23.5768 12.9176 23.7201 12.7956 23.8242 12.6523C23.9284 12.5059 23.9837 12.3675 23.9902 12.2373L24.3711 12.7598C24.332 12.8932 24.2653 13.0365 24.1709 13.1895C24.0765 13.3424 23.9528 13.4889 23.7998 13.6289C23.6501 13.7656 23.4694 13.8779 23.2578 13.9658C23.0495 14.0537 22.8086 14.0977 22.5352 14.0977C22.1901 14.0977 21.8825 14.0293 21.6123 13.8926C21.3421 13.7526 21.1305 13.5654 20.9775 13.3311C20.8245 13.0934 20.748 12.8249 20.748 12.5254C20.748 12.2454 20.8001 11.998 20.9043 11.7832C21.0117 11.5651 21.168 11.3828 21.373 11.2363C21.5814 11.0898 21.8353 10.9792 22.1348 10.9043C22.4342 10.8262 22.776 10.7871 23.1602 10.7871H24.083ZM27.7793 13.4238L29.2148 8.7168H30.4746L28.3555 14.8057C28.3066 14.9359 28.2432 15.0775 28.165 15.2305C28.0869 15.3835 27.9844 15.5283 27.8574 15.665C27.7337 15.805 27.5791 15.9173 27.3936 16.002C27.208 16.0898 26.9834 16.1338 26.7197 16.1338C26.6156 16.1338 26.5146 16.124 26.417 16.1045C26.3226 16.0882 26.2331 16.0703 26.1484 16.0508L26.1436 15.1523C26.1761 15.1556 26.2152 15.1589 26.2607 15.1621C26.3096 15.1654 26.3486 15.167 26.3779 15.167C26.5732 15.167 26.736 15.1426 26.8662 15.0938C26.9964 15.0482 27.1022 14.9733 27.1836 14.8691C27.2682 14.765 27.3398 14.625 27.3984 14.4492L27.7793 13.4238ZM26.9688 8.7168L28.2236 12.6719L28.4336 13.9121L27.6182 14.1221L25.6992 8.7168H26.9688Z" fill="white"/>
<defs>
<linearGradient id="paint0_linear_1_4" x1="-9.69808e-09" y1="9" x2="45" y2="14" gradientUnits="userSpaceOnUse">
<stop stop-color="#B183EA"/>
<stop offset="1" stop-color="#E185E3"/>
</linearGradient>
</defs>
</svg>
