<svg width="26" height="34" viewBox="0 0 26 34" fill="none" xmlns="http://www.w3.org/2000/svg">
<path d="M12.0332 12.6597H21.462" stroke="#B283EA" stroke-width="1.31871" stroke-linecap="round"/>
<path d="M5.47266 16.9126H20.9016" stroke="#B283EA" stroke-width="1.31871" stroke-linecap="round"/>
<path d="M5.47266 21.1323H20.9016" stroke="#B283EA" stroke-width="1.31871" stroke-linecap="round"/>
<path d="M5.47266 25.3521H20.9016" stroke="#B283EA" stroke-width="1.31871" stroke-linecap="round"/>
<path d="M5.47266 29.5723H13.8465" stroke="#B283EA" stroke-width="1.31871" stroke-linecap="round"/>
<path d="M0.659355 1.45058C0.659355 1.0136 1.0136 0.659355 1.45058 0.659355H16.352C16.789 0.659355 17.1432 1.0136 17.1432 1.45058V5.83529C17.1432 7.00058 18.0879 7.94523 19.2532 7.94523H24.2643C24.7012 7.94523 25.0555 8.29947 25.0555 8.73645V32.3084C25.0555 32.7454 24.7012 33.0996 24.2643 33.0996H1.45058C1.0136 33.0996 0.659355 32.7454 0.659355 32.3084V1.45058Z" stroke="#E285E3" stroke-width="1.31871"/>
<path d="M16.7476 0.758301L24.8247 8.14308" stroke="#E285E3" stroke-width="1.31871" stroke-linecap="round"/>
<path fill-rule="evenodd" clip-rule="evenodd" d="M6.63791 2.96727H7.65476V4.72979C8.0805 4.73592 8.46401 4.76807 8.8053 4.82623C9.19084 4.89125 9.51754 4.99301 9.7854 5.13153C10.0573 5.26721 10.2623 5.43965 10.4002 5.64883C10.5423 5.85801 10.6133 6.10677 10.6133 6.39511C10.6133 6.64952 10.526 6.88273 10.3515 7.09474C10.177 7.30392 9.91932 7.47494 9.57842 7.6078C9.50188 7.63763 9.42115 7.66475 9.33623 7.68917C9.5461 7.7268 9.73235 7.78165 9.89497 7.85373C10.2115 7.99225 10.4469 8.17175 10.6011 8.39224C10.7553 8.61273 10.8325 8.85018 10.8325 9.10459C10.8325 9.49752 10.7087 9.82684 10.4611 10.0926C10.2176 10.3583 9.86656 10.5604 9.40797 10.6989C8.94937 10.8346 8.39743 10.9024 7.75215 10.9024H7.65476V12.2642H6.63791V10.9024H6.02328H5.98413V12.2642H4.96728V10.9024H4.49531V10.9023H3.29688L3.29688 9.88541H4.49531V5.7453H3.29688L3.29688 4.72845L4.96728 4.72845V2.96727H5.98413V4.72871H6.63791V2.96727ZM6.02328 8.11238V10.0586H7.75215C8.09711 10.0586 8.38526 10.0191 8.61658 9.93991C8.84791 9.85793 9.02039 9.74627 9.13403 9.60493C9.25172 9.46077 9.31057 9.29257 9.31057 9.10035C9.31057 8.89965 9.25984 8.7258 9.15838 8.57881C9.05692 8.42899 8.89661 8.3145 8.67746 8.23535C8.45831 8.15337 8.17219 8.11238 7.81911 8.11238H6.10242H6.02328ZM6.1146 7.33643H7.52082C7.85361 7.33643 8.13567 7.30251 8.36699 7.23466C8.60238 7.16399 8.78095 7.06364 8.9027 6.93361C9.02445 6.80075 9.08533 6.64104 9.08533 6.45447C9.08533 6.24811 9.02851 6.07992 8.91488 5.94988C8.80124 5.81985 8.62673 5.72515 8.39135 5.66579C8.16002 5.60643 7.86376 5.57675 7.50256 5.57675H6.02328V7.33643H6.1146Z" fill="url(#paint0_linear_47_107)"/>
<defs>
<linearGradient id="paint0_linear_47_107" x1="5.14307" y1="2.96727" x2="7.66388" y2="10.9023" gradientUnits="userSpaceOnUse">
<stop stop-color="#E285E3"/>
<stop offset="1" stop-color="#B283EA"/>
</linearGradient>
</defs>
</svg>
