<svg width="23" height="22" viewBox="0 0 23 22" fill="none" xmlns="http://www.w3.org/2000/svg">
<path d="M21.2759 14.8929C20.6136 16.3977 19.5776 17.7237 18.2586 18.755C16.9397 19.7864 15.3778 20.4915 13.7096 20.809C12.0414 21.1264 10.3177 21.0464 8.6891 20.5759C7.06053 20.1055 5.5767 19.2589 4.36735 18.1103C3.158 16.9616 2.25995 15.5458 1.7517 13.9867C1.24346 12.4275 1.1405 10.7725 1.45183 9.1663C1.76315 7.5601 2.47929 6.05162 3.53762 4.77274C4.59595 3.49387 5.96426 2.48354 7.52291 1.83008" stroke="#E186E4" stroke-width="1.78344" stroke-linecap="round" stroke-linejoin="round"/>
<path d="M12.3699 3.17346V5.59126H11.0914V3.17346H12.3699ZM12.2142 16.5574V18.7621H10.9356V16.5574H12.2142ZM13.1158 13.8692C13.1158 13.5577 13.0584 13.2927 12.9436 13.0741C12.8344 12.8556 12.6541 12.6616 12.4027 12.4922C12.1568 12.3229 11.8235 12.1589 11.4028 12.0005C10.6925 11.7273 10.0669 11.4377 9.52594 11.1317C8.99047 10.8203 8.57248 10.4351 8.27196 9.97608C7.97145 9.51165 7.82119 8.92427 7.82119 8.21396C7.82119 7.53643 7.98237 6.94905 8.30475 6.45183C8.62712 5.95461 9.07243 5.57213 9.64069 5.3044C10.2144 5.0312 10.881 4.8946 11.6405 4.8946C12.2197 4.8946 12.7442 4.98203 13.2141 5.15687C13.684 5.32626 14.0883 5.5776 14.4271 5.9109C14.7659 6.23874 15.0254 6.64034 15.2057 7.1157C15.386 7.59107 15.4762 8.13473 15.4762 8.74669H13.124C13.124 8.41886 13.0884 8.12927 13.0174 7.87792C12.9464 7.62658 12.8426 7.41622 12.706 7.24684C12.5748 7.07745 12.4164 6.95178 12.2306 6.86982C12.0448 6.7824 11.8399 6.73869 11.6159 6.73869C11.2826 6.73869 11.0094 6.80426 10.7963 6.93539C10.5832 7.06653 10.4275 7.2441 10.3291 7.46813C10.2363 7.68669 10.1898 7.93803 10.1898 8.22215C10.1898 8.50081 10.239 8.74396 10.3373 8.95159C10.4412 9.15922 10.6187 9.35046 10.8701 9.52531C11.1214 9.69469 11.4656 9.86954 11.9028 10.0498C12.6131 10.323 13.236 10.6181 13.7714 10.935C14.3069 11.2519 14.7249 11.6399 15.0254 12.0988C15.3259 12.5578 15.4762 13.1424 15.4762 13.8528C15.4762 14.5576 15.3123 15.1586 14.9844 15.6559C14.6566 16.1476 14.1976 16.5246 13.6075 16.7869C13.0174 17.0437 12.3344 17.1721 11.5585 17.1721C11.0559 17.1721 10.5559 17.1065 10.0587 16.9754C9.56146 16.8388 9.11068 16.6203 8.70635 16.3197C8.30202 16.0192 7.97964 15.6204 7.73923 15.1231C7.49881 14.6204 7.37861 14.003 7.37861 13.2708H9.73904C9.73904 13.6697 9.79094 14.003 9.89476 14.2708C9.99857 14.533 10.1352 14.7434 10.3046 14.9018C10.4794 15.0548 10.6761 15.1641 10.8947 15.2297C11.1132 15.2952 11.3345 15.328 11.5585 15.328C11.9082 15.328 12.1951 15.2652 12.4191 15.1395C12.6486 15.0139 12.8207 14.8417 12.9355 14.6232C13.0557 14.3992 13.1158 14.1478 13.1158 13.8692Z" fill="#B284EB"/>
</svg>
