<svg width="35" height="35" viewBox="0 0 35 35" fill="none" xmlns="http://www.w3.org/2000/svg">
<rect x="0.5" y="0.5" width="34" height="34" rx="3.5" fill="white" stroke="#E1E1E1"/>
<path d="M16.2912 16.6166C17.187 16.9361 19.1361 17.6314 19.5995 16.2748C20.0726 14.8868 18.1718 14.2966 17.2412 14.0076C17.1357 13.9748 17.0427 13.9459 16.967 13.9202L16.0733 16.54C16.1358 16.5611 16.2091 16.5873 16.2912 16.6166Z" fill="#D5D5D5"/>
<path d="M14.8927 20.8379C15.9657 21.2187 18.3125 22.0517 18.8221 20.5568C19.3436 19.0283 17.0605 18.3136 15.9465 17.9649C15.8222 17.926 15.7121 17.8915 15.6225 17.8611L14.637 20.7483C14.7104 20.7732 14.7966 20.8038 14.8927 20.8379Z" fill="#D5D5D5"/>
<path fill-rule="evenodd" clip-rule="evenodd" d="M28.711 18.5255C28.1468 25.2672 22.2241 30.2751 15.4824 29.7109C8.74064 29.1467 3.7328 23.2241 4.29705 16.4823C4.8613 9.74061 10.784 4.73274 17.5257 5.29695C24.2674 5.86115 29.2752 11.7838 28.711 18.5255ZM19.8163 13.214C21.4655 13.9392 22.6346 14.9163 22.2549 16.5208C21.9783 17.6959 21.2681 18.2159 20.3716 18.3438C21.526 19.0707 21.8379 20.2928 21.3355 21.6971C20.4369 23.7031 18.6975 23.7328 16.4395 23.1088L15.6964 25.2839L14.3796 24.8371L15.1125 22.6911C14.7711 22.5757 14.4225 22.4535 14.0637 22.3243L13.3276 24.4808L12.0123 24.0341L12.755 21.8544L10.1032 20.9469L10.8998 19.4687C10.8998 19.4687 11.8694 19.8135 11.8572 19.7933C12.2302 19.919 12.4203 19.6859 12.5007 19.5274L14.5149 13.6235C14.5556 13.3402 14.4867 12.9732 13.9533 12.7918C13.9752 12.779 12.9966 12.4681 12.9966 12.4681L13.4742 11.067L16.1307 11.9633L16.8667 9.80837L18.1827 10.2551L17.4619 12.3676C17.8168 12.4795 18.173 12.5931 18.5189 12.7104L19.2347 10.6114L20.5515 11.0582L19.8163 13.214Z" fill="#D5D5D5"/>
</svg>
