<svg width="50" height="50" viewBox="0 0 50 50" fill="none" xmlns="http://www.w3.org/2000/svg">
<g clip-path="url(#clip0_1_2)">
<path d="M50 25C50 38.8125 38.8125 50 25 50C11.1875 50 0 38.8125 0 25C0 11.1875 11.1875 0 25 0C38.8125 0 50 11.1875 50 25Z" fill="url(#paint0_linear_1_2)"/>
<path d="M20.4166 36.4584C19.6041 36.4584 19.75 36.1459 19.4583 35.375L17.0833 27.5417L31.8333 18.3334L33.5625 18.7917L32.125 22.7084L20.4166 36.4584Z" fill="#C8DAEA"/>
<path d="M20.4167 36.4583C21.0417 36.4583 21.3125 36.1667 21.6667 35.8333C22.2084 35.3125 29.1667 28.5417 29.1667 28.5417L24.8959 27.5L20.9375 30L20.4167 36.25V36.4583Z" fill="#A9C9DD"/>
<path d="M20.8333 30.0833L30.9167 37.5208C32.0625 38.1458 32.8958 37.8333 33.1875 36.4583L37.2917 17.125C37.7083 15.4375 36.6458 14.6875 35.5417 15.1875L11.4583 24.4792C9.81249 25.1458 9.83333 26.0625 11.1667 26.4583L17.3542 28.3958L31.6667 19.375C32.3333 18.9583 32.9583 19.1875 32.4583 19.6458L20.8333 30.0833Z" fill="url(#paint1_linear_1_2)"/>
</g>
<defs>
<linearGradient id="paint0_linear_1_2" x1="32.3271" y1="7.90208" x2="19.8271" y2="37.0683" gradientUnits="userSpaceOnUse">
<stop stop-color="#37AEE2"/>
<stop offset="1" stop-color="#1E96C8"/>
</linearGradient>
<linearGradient id="paint1_linear_1_2" x1="26.8731" y1="25.7823" x2="32.0815" y2="34.1156" gradientUnits="userSpaceOnUse">
<stop stop-color="#EFF7FC"/>
<stop offset="1" stop-color="white"/>
</linearGradient>
<clipPath id="clip0_1_2">
<rect width="50" height="50" fill="white"/>
</clipPath>
</defs>
</svg>
