<svg width="12" height="12" viewBox="0 0 12 12" fill="none" xmlns="http://www.w3.org/2000/svg">
<path d="M5.3 10.3203C5.3 10.7069 5.6134 11.0203 6 11.0203C6.3866 11.0203 6.7 10.7069 6.7 10.3203H5.3ZM6.49497 0.225337C6.22161 -0.0480299 5.77839 -0.0480299 5.50503 0.225337L1.05025 4.68011C0.776886 4.95348 0.776886 5.39669 1.05025 5.67006C1.32362 5.94343 1.76684 5.94343 2.0402 5.67006L6 1.71026L9.9598 5.67006C10.2332 5.94343 10.6764 5.94343 10.9497 5.67006C11.2231 5.39669 11.2231 4.95348 10.9497 4.68011L6.49497 0.225337ZM6.7 10.3203L6.7 0.720312H5.3L5.3 10.3203H6.7Z" fill="#079E48"/>
</svg>
