<svg width="126" height="25" viewBox="0 0 126 25" fill="none" xmlns="http://www.w3.org/2000/svg">
<path d="M1 19.7745C1 19.7745 5.88798 18.9929 11.4453 20.8705C22.0151 24.4414 22.618 17.9022 26.5374 14.7491C30.1232 11.8644 33.0929 13.6244 37.0854 17.1522C40.0301 19.7541 44.3215 24.1217 48.7658 23.4186C52.8284 22.7758 55.7083 17.6533 61.3394 16.3505C65.8024 15.318 69.4294 18.1546 74.5685 17.1522C81.5402 15.7924 84.6544 7.78703 89.637 7.78703C95.7868 7.78703 100.117 1 105.711 1C111.273 1 111.568 4.99768 117.652 7.78703C122.303 9.91951 125 7.78703 125 7.78703" stroke="#B167F8" stroke-width="2" stroke-linecap="round" stroke-linejoin="round"/>
</svg>
